{
    "asset" : {
        "generator" : "Khronos glTF Blender I/O v1.7.33",
        "version" : "2.0"
    },
    "scene" : 0,
    "scenes" : [
        {
            "name" : "Scene",
            "nodes" : [
                1,
                2,
                3,
                4
            ]
        }
    ],
    "nodes" : [
        {
            "camera" : 0,
            "name" : "Camera_Orientation",
            "rotation" : [
                -0.7071067690849304,
                0,
                0,
                0.7071067690849304
            ]
        },
        {
            "children" : [
                0
            ],
            "name" : "Camera",
            "rotation" : [
                0.3682200610637665,
                0.6184505820274353,
                -0.5925901532173157,
                0.3616211712360382
            ],
            "scale" : [
                0.31209447979927063,
                1.0116742849349976,
                1.0442793369293213
            ],
            "translation" : [
                1.9166216850280762,
                2.158423662185669,
                -0.3784255385398865
            ]
        },
        {
            "mesh" : 0,
            "name" : "Plane",
            "rotation" : [
                0,
                0,
                -0.8085038065910339,
                0.588490903377533
            ],
            "scale" : [
                -0.05564200133085251,
                -0.017107998952269554,
                -0.05566154792904854
            ]
        },
        {
            "mesh" : 1,
            "name" : "Plane.001",
            "rotation" : [
                0,
                0,
                -0.006222069263458252,
                0.999980628490448
            ],
            "scale" : [
                -0.05564200133085251,
                -0.017107998952269554,
                -0.05566154792904854
            ],
            "translation" : [
                0,
                0,
                0.20000000298023224
            ]
        },
        {
            "mesh" : 2,
            "name" : "Plane.002",
            "rotation" : [
                0,
                0,
                -0.8163033723831177,
                0.5776234269142151
            ],
            "scale" : [
                -0.05564200133085251,
                -0.017107998952269554,
                -0.05566154792904854
            ],
            "translation" : [
                0,
                0,
                0.4000000059604645
            ]
        }
    ],
    "cameras" : [
        {
            "name" : "Camera",
            "perspective" : {
                "aspectRatio" : 1.7777777777777777,
                "yfov" : 0.4406747136714388,
                "zfar" : 100,
                "znear" : 0.10000000149011612
            },
            "type" : "perspective"
        }
    ],
    "animations" : [
        {
            "channels" : [
                {
                    "sampler" : 0,
                    "target" : {
                        "node" : 2,
                        "path" : "rotation"
                    }
                },
                {
                    "sampler" : 1,
                    "target" : {
                        "node" : 3,
                        "path" : "rotation"
                    }
                },
                {
                    "sampler" : 2,
                    "target" : {
                        "node" : 4,
                        "path" : "rotation"
                    }
                }
            ],
            "name" : "Animation",
            "samplers" : [
                {
                    "input" : 12,
                    "interpolation" : "LINEAR",
                    "output" : 13
                },
                {
                    "input" : 12,
                    "interpolation" : "LINEAR",
                    "output" : 14
                },
                {
                    "input" : 12,
                    "interpolation" : "LINEAR",
                    "output" : 15
                }
            ]
        }
    ],
    "materials" : [
        {
            "doubleSided" : true,
            "name" : "Material.001",
            "pbrMetallicRoughness" : {
                "baseColorFactor" : [
                    0.8000000715255737,
                    0.05988025292754173,
                    0.03835124522447586,
                    1
                ],
                "metallicFactor" : 0,
                "metallicRoughnessTexture" : {
                    "index" : 0
                },
                "roughnessFactor" : 5
            }
        }
    ],
    "meshes" : [
        {
            "name" : "Plane",
            "primitives" : [
                {
                    "attributes" : {
                        "POSITION" : 0,
                        "NORMAL" : 1,
                        "TEXCOORD_0" : 2
                    },
                    "indices" : 3,
                    "material" : 0
                }
            ]
        },
        {
            "name" : "Plane.004",
            "primitives" : [
                {
                    "attributes" : {
                        "POSITION" : 4,
                        "NORMAL" : 5,
                        "TEXCOORD_0" : 6
                    },
                    "indices" : 7,
                    "material" : 0
                }
            ]
        },
        {
            "name" : "Plane.005",
            "primitives" : [
                {
                    "attributes" : {
                        "POSITION" : 8,
                        "NORMAL" : 9,
                        "TEXCOORD_0" : 10
                    },
                    "indices" : 11,
                    "material" : 0
                }
            ]
        }
    ],
    "textures" : [
        {
            "sampler" : 0,
            "source" : 0
        }
    ],
    "images" : [
        {
            "mimeType" : "image/png",
            "name" : "velvet_caracole",
            "uri" : "velvet_caracole.png"
        }
    ],
    "accessors" : [
        {
            "bufferView" : 0,
            "componentType" : 5126,
            "count" : 89904,
            "max" : [
                37.67532730102539,
                114.61601257324219,
                1.7971974611282349
            ],
            "min" : [
                -17.41945457458496,
                -122.71215057373047,
                -1.7971965074539185
            ],
            "type" : "VEC3"
        },
        {
            "bufferView" : 1,
            "componentType" : 5126,
            "count" : 89904,
            "type" : "VEC3"
        },
        {
            "bufferView" : 2,
            "componentType" : 5126,
            "count" : 89904,
            "type" : "VEC2"
        },
        {
            "bufferView" : 3,
            "componentType" : 5125,
            "count" : 456378,
            "type" : "SCALAR"
        },
        {
            "bufferView" : 4,
            "componentType" : 5126,
            "count" : 91665,
            "max" : [
                37.67532730102539,
                115.46781921386719,
                1.7971974611282349
            ],
            "min" : [
                -18.3822078704834,
                -122.71215057373047,
                -1.7971965074539185
            ],
            "type" : "VEC3"
        },
        {
            "bufferView" : 5,
            "componentType" : 5126,
            "count" : 91665,
            "type" : "VEC3"
        },
        {
            "bufferView" : 6,
            "componentType" : 5126,
            "count" : 91665,
            "type" : "VEC2"
        },
        {
            "bufferView" : 7,
            "componentType" : 5125,
            "count" : 465321,
            "type" : "SCALAR"
        },
        {
            "bufferView" : 8,
            "componentType" : 5126,
            "count" : 93163,
            "max" : [
                37.67532730102539,
                115.67124938964844,
                1.7971974611282349
            ],
            "min" : [
                -19.318836212158203,
                -122.71215057373047,
                -1.7971965074539185
            ],
            "type" : "VEC3"
        },
        {
            "bufferView" : 9,
            "componentType" : 5126,
            "count" : 93163,
            "type" : "VEC3"
        },
        {
            "bufferView" : 10,
            "componentType" : 5126,
            "count" : 93163,
            "type" : "VEC2"
        },
        {
            "bufferView" : 11,
            "componentType" : 5125,
            "count" : 473574,
            "type" : "SCALAR"
        },
        {
            "bufferView" : 12,
            "componentType" : 5126,
            "count" : 601,
            "max" : [
                25
            ],
            "min" : [
                0
            ],
            "type" : "SCALAR"
        },
        {
            "bufferView" : 13,
            "componentType" : 5126,
            "count" : 601,
            "type" : "VEC4"
        },
        {
            "bufferView" : 14,
            "componentType" : 5126,
            "count" : 601,
            "type" : "VEC4"
        },
        {
            "bufferView" : 15,
            "componentType" : 5126,
            "count" : 601,
            "type" : "VEC4"
        }
    ],
    "bufferViews" : [
        {
            "buffer" : 0,
            "byteLength" : 1078848,
            "byteOffset" : 0
        },
        {
            "buffer" : 0,
            "byteLength" : 1078848,
            "byteOffset" : 1078848
        },
        {
            "buffer" : 0,
            "byteLength" : 719232,
            "byteOffset" : 2157696
        },
        {
            "buffer" : 0,
            "byteLength" : 1825512,
            "byteOffset" : 2876928
        },
        {
            "buffer" : 0,
            "byteLength" : 1099980,
            "byteOffset" : 4702440
        },
        {
            "buffer" : 0,
            "byteLength" : 1099980,
            "byteOffset" : 5802420
        },
        {
            "buffer" : 0,
            "byteLength" : 733320,
            "byteOffset" : 6902400
        },
        {
            "buffer" : 0,
            "byteLength" : 1861284,
            "byteOffset" : 7635720
        },
        {
            "buffer" : 0,
            "byteLength" : 1117956,
            "byteOffset" : 9497004
        },
        {
            "buffer" : 0,
            "byteLength" : 1117956,
            "byteOffset" : 10614960
        },
        {
            "buffer" : 0,
            "byteLength" : 745304,
            "byteOffset" : 11732916
        },
        {
            "buffer" : 0,
            "byteLength" : 1894296,
            "byteOffset" : 12478220
        },
        {
            "buffer" : 0,
            "byteLength" : 2404,
            "byteOffset" : 14372516
        },
        {
            "buffer" : 0,
            "byteLength" : 9616,
            "byteOffset" : 14374920
        },
        {
            "buffer" : 0,
            "byteLength" : 9616,
            "byteOffset" : 14384536
        },
        {
            "buffer" : 0,
            "byteLength" : 9616,
            "byteOffset" : 14394152
        }
    ],
    "samplers" : [
        {
            "magFilter" : 9729,
            "minFilter" : 9987
        }
    ],
    "buffers" : [
        {
            "byteLength" : 14403768,
            "uri" : "First_section_About.bin"
        }
    ]
}
