{
    "asset" : {
        "generator" : "Khronos glTF Blender I/O v1.7.33",
        "version" : "2.0"
    },
    "scene" : 0,
    "scenes" : [
        {
            "name" : "Scene",
            "nodes" : [
                0,
                1,
                2
            ]
        }
    ],
    "nodes" : [
        {
            "mesh" : 0,
            "name" : "Plane",
            "rotation" : [
                0,
                0,
                -0.8085038065910339,
                0.588490903377533
            ],
            "scale" : [
                -0.05564200133085251,
                -0.017107998952269554,
                -0.05566154792904854
            ]
        },
        {
            "mesh" : 1,
            "name" : "Plane.001",
            "rotation" : [
                0,
                0,
                -0.8085038065910339,
                0.588490903377533
            ],
            "scale" : [
                -0.05564200133085251,
                -0.017107998952269554,
                -0.05566154792904854
            ],
            "translation" : [
                0,
                0,
                0.20000000298023224
            ]
        },
        {
            "mesh" : 2,
            "name" : "Plane.002",
            "rotation" : [
                0,
                0,
                -0.8085038065910339,
                0.588490903377533
            ],
            "scale" : [
                -0.05564200133085251,
                -0.017107998952269554,
                -0.05566154792904854
            ],
            "translation" : [
                0,
                0,
                0.4000000059604645
            ]
        }
    ],
    "animations" : [
        {
            "channels" : [
                {
                    "sampler" : 0,
                    "target" : {
                        "node" : 0,
                        "path" : "rotation"
                    }
                },
                {
                    "sampler" : 1,
                    "target" : {
                        "node" : 1,
                        "path" : "rotation"
                    }
                },
                {
                    "sampler" : 2,
                    "target" : {
                        "node" : 2,
                        "path" : "rotation"
                    }
                }
            ],
            "name" : "Animation",
            "samplers" : [
                {
                    "input" : 7,
                    "interpolation" : "LINEAR",
                    "output" : 8
                },
                {
                    "input" : 7,
                    "interpolation" : "LINEAR",
                    "output" : 9
                },
                {
                    "input" : 7,
                    "interpolation" : "LINEAR",
                    "output" : 10
                }
            ]
        }
    ],
    "materials" : [
        {
            "doubleSided" : true,
            "name" : "Material.001",
            "pbrMetallicRoughness" : {
                "baseColorFactor" : [
                    0.8000000715255737,
                    0.05988025292754173,
                    0.03835124522447586,
                    1
                ],
                "metallicFactor" : 0,
                "roughnessFactor" : 0.4954545497894287
            }
        }
    ],
    "meshes" : [
        {
            "name" : "Plane",
            "primitives" : [
                {
                    "attributes" : {
                        "POSITION" : 0,
                        "TEXCOORD_0" : 1
                    },
                    "indices" : 2,
                    "material" : 0
                }
            ]
        },
        {
            "name" : "Plane.004",
            "primitives" : [
                {
                    "attributes" : {
                        "POSITION" : 3,
                        "TEXCOORD_0" : 4
                    },
                    "indices" : 2,
                    "material" : 0
                }
            ]
        },
        {
            "name" : "Plane.005",
            "primitives" : [
                {
                    "attributes" : {
                        "POSITION" : 5,
                        "TEXCOORD_0" : 6
                    },
                    "indices" : 2,
                    "material" : 0
                }
            ]
        }
    ],
    "accessors" : [
        {
            "bufferView" : 0,
            "componentType" : 5126,
            "count" : 763392,
            "max" : [
                37.676475524902344,
                115.67124938964844,
                1.7971974611282349
            ],
            "min" : [
                -26.396120071411133,
                -122.73267364501953,
                -1.7971965074539185
            ],
            "type" : "VEC3"
        },
        {
            "bufferView" : 1,
            "componentType" : 5126,
            "count" : 763392,
            "type" : "VEC2"
        },
        {
            "bufferView" : 2,
            "componentType" : 5125,
            "count" : 4128768,
            "type" : "SCALAR"
        },
        {
            "bufferView" : 3,
            "componentType" : 5126,
            "count" : 763392,
            "max" : [
                37.676475524902344,
                115.67124938964844,
                1.7971974611282349
            ],
            "min" : [
                -26.396120071411133,
                -122.73267364501953,
                -1.7971965074539185
            ],
            "type" : "VEC3"
        },
        {
            "bufferView" : 4,
            "componentType" : 5126,
            "count" : 763392,
            "type" : "VEC2"
        },
        {
            "bufferView" : 5,
            "componentType" : 5126,
            "count" : 763392,
            "max" : [
                37.676475524902344,
                115.67124938964844,
                1.7971974611282349
            ],
            "min" : [
                -26.396120071411133,
                -122.73267364501953,
                -1.7971965074539185
            ],
            "type" : "VEC3"
        },
        {
            "bufferView" : 6,
            "componentType" : 5126,
            "count" : 763392,
            "type" : "VEC2"
        },
        {
            "bufferView" : 7,
            "componentType" : 5126,
            "count" : 301,
            "max" : [
                12.5
            ],
            "min" : [
                0
            ],
            "type" : "SCALAR"
        },
        {
            "bufferView" : 8,
            "componentType" : 5126,
            "count" : 301,
            "type" : "VEC4"
        },
        {
            "bufferView" : 9,
            "componentType" : 5126,
            "count" : 301,
            "type" : "VEC4"
        },
        {
            "bufferView" : 10,
            "componentType" : 5126,
            "count" : 301,
            "type" : "VEC4"
        }
    ],
    "bufferViews" : [
        {
            "buffer" : 0,
            "byteLength" : 9160704,
            "byteOffset" : 0
        },
        {
            "buffer" : 0,
            "byteLength" : 6107136,
            "byteOffset" : 9160704
        },
        {
            "buffer" : 0,
            "byteLength" : 16515072,
            "byteOffset" : 15267840
        },
        {
            "buffer" : 0,
            "byteLength" : 9160704,
            "byteOffset" : 31782912
        },
        {
            "buffer" : 0,
            "byteLength" : 6107136,
            "byteOffset" : 40943616
        },
        {
            "buffer" : 0,
            "byteLength" : 9160704,
            "byteOffset" : 47050752
        },
        {
            "buffer" : 0,
            "byteLength" : 6107136,
            "byteOffset" : 56211456
        },
        {
            "buffer" : 0,
            "byteLength" : 1204,
            "byteOffset" : 62318592
        },
        {
            "buffer" : 0,
            "byteLength" : 4816,
            "byteOffset" : 62319796
        },
        {
            "buffer" : 0,
            "byteLength" : 4816,
            "byteOffset" : 62324612
        },
        {
            "buffer" : 0,
            "byteLength" : 4816,
            "byteOffset" : 62329428
        }
    ],
    "buffers" : [
        {
            "byteLength" : 62334244,
            "uri" : "First_section_About.bin"
        }
    ]
}
